<?xml version="1.0" encoding="UTF-8" standalone="no"?>
<!DOCTYPE svg PUBLIC "-//W3C//DTD SVG 1.1//EN" "http://www.w3.org/Graphics/SVG/1.1/DTD/svg11.dtd">
<!-- Created with Vectornator (http://vectornator.io/) -->
<svg height="100%" stroke-miterlimit="10" style="fill-rule:nonzero;clip-rule:evenodd;stroke-linecap:round;stroke-linejoin:round;" version="1.1" viewBox="0 0 16 16" width="100%" xml:space="preserve" xmlns="http://www.w3.org/2000/svg" xmlns:vectornator="http://vectornator.io" xmlns:xlink="http://www.w3.org/1999/xlink">
<defs/>
<g id="Layer-1" vectornator:layerName="Layer 1">
<path d="M5.77045 4.49716L5.76481 4.39048L5.74875 4.2863L5.68701 4.08921L5.58946 3.91171L5.46051 3.75596L5.30333 3.62834L5.12393 3.5316L4.92512 3.4704L4.82016 3.45468L4.71202 3.4489L4.60371 3.45468L4.49874 3.4704L4.29993 3.5316L4.12 3.62834L3.96371 3.75596L3.89508 3.83093L3.83422 3.91171L3.73667 4.08921L3.67493 4.2863L3.65358 4.49716L3.67493 4.70885L3.73667 4.90565L3.83422 5.08372L3.89508 5.16476L3.96371 5.2389L4.0385 5.30643L4.12 5.3668L4.29993 5.46383L4.49874 5.52474L4.71202 5.5457L4.92512 5.52474L5.12393 5.46383L5.30333 5.3668L5.38483 5.30643L5.46051 5.2389L5.58946 5.08372L5.68701 4.90565L5.74875 4.70885L5.76481 4.60466L5.77045 4.49716Z" fill="#000000" fill-rule="evenodd" opacity="1" stroke="none"/>
<path d="M5.77045 11.5014L5.76481 11.3945L5.74875 11.2906L5.68701 11.0938L5.58946 10.916L5.46051 10.7602L5.30333 10.6323L5.12393 10.5359L4.92512 10.4747L4.82016 10.4587L4.71202 10.4529L4.60371 10.4587L4.49874 10.4747L4.29993 10.5359L4.12 10.6323L3.96371 10.7602L3.89508 10.8349L3.83422 10.916L3.73667 11.0938L3.67493 11.2906L3.65358 11.5014L3.67493 11.7128L3.73667 11.9097L3.83422 12.088L3.89508 12.1688L3.96371 12.2426L4.0385 12.3104L4.12 12.3711L4.29993 12.4676L4.49874 12.5287L4.71202 12.55L4.92512 12.5287L5.12393 12.4676L5.30333 12.3711L5.38483 12.3104L5.46051 12.2426L5.58946 12.088L5.68701 11.9097L5.74875 11.7128L5.76481 11.6087L5.77045 11.5014Z" fill="#000000" fill-rule="evenodd" opacity="1" stroke="none"/>
<path d="M9.30615 7.99943L9.30033 7.89249L9.28428 7.7883L9.22254 7.59176L9.12498 7.41369L8.99603 7.25824L8.83885 7.13061L8.65945 7.03387L8.46064 6.97267L8.35568 6.95669L8.24772 6.9509L8.13923 6.95669L8.03427 6.97267L7.83563 7.03387L7.65552 7.13061L7.49923 7.25824L7.43061 7.33322L7.36975 7.41369L7.27219 7.59176L7.21045 7.7883L7.18928 7.99943L7.21045 8.21057L7.27219 8.40765L7.36975 8.58572L7.43061 8.66676L7.49923 8.74063L7.57402 8.8087L7.65552 8.86907L7.83563 8.96555L8.03427 9.02674L8.24772 9.04768L8.46064 9.02674L8.65945 8.96555L8.83885 8.86907L8.92053 8.8087L8.99603 8.74063L9.12498 8.58572L9.22254 8.40765L9.28428 8.21057L9.30033 8.10693L9.30615 7.99943" fill="#000000" fill-rule="evenodd" opacity="1" stroke="none"/>
<path d="M4.71202 11.5014L5.77045 11.5014L8.20979 7.95864L5.77045 4.49716L3.65358 4.49716L3.65358 11.5014L4.71202 11.5014Z" fill="#000000" fill-rule="evenodd" opacity="1" stroke="none"/>
<path d="M8.24772 7.99943L7.49923 7.25824L3.96371 10.7602L4.71202 11.5014L5.46051 12.2426L8.99603 8.74063L8.24772 7.99943Z" fill="#000000" fill-rule="evenodd" opacity="1" stroke="none"/>
<path d="M4.71202 4.49716L3.96371 5.2389L6.22524 7.47881L7.49923 8.74063L8.24772 7.99943L8.99603 7.25824L5.46051 3.75596L4.71202 4.49716Z" fill="#000000" fill-rule="evenodd" opacity="1" stroke="none"/>
<path d="M8.71202 4.49716L7.96371 5.2389L11.4992 8.74063L12.2477 7.99943L12.996 7.25824L9.46051 3.75596L8.71202 4.49716Z" fill="#000000" fill-rule="evenodd" opacity="1" stroke="none"/>
<path d="M9.77045 4.49716L9.76481 4.39048L9.74875 4.2863L9.68701 4.08921L9.58946 3.91171L9.46051 3.75596L9.30333 3.62834L9.12393 3.5316L8.92512 3.4704L8.82016 3.45468L8.71202 3.4489L8.60371 3.45468L8.49874 3.4704L8.29993 3.5316L8.12 3.62834L7.96371 3.75596L7.89508 3.83093L7.83422 3.91171L7.73667 4.08921L7.67493 4.2863L7.65358 4.49716L7.67493 4.70885L7.73667 4.90565L7.83422 5.08372L7.89508 5.16476L7.96371 5.2389L8.0385 5.30643L8.12 5.3668L8.29993 5.46383L8.49874 5.52474L8.71202 5.5457L8.92512 5.52474L9.12393 5.46383L9.30333 5.3668L9.38483 5.30643L9.46051 5.2389L9.58946 5.08372L9.68701 4.90565L9.74875 4.70885L9.76481 4.60466L9.77045 4.49716Z" fill="#000000" fill-rule="evenodd" opacity="1" stroke="none"/>
<path d="M9.77045 11.5014L9.76481 11.3945L9.74875 11.2906L9.68701 11.0938L9.58946 10.916L9.46051 10.7602L9.30333 10.6323L9.12393 10.5359L8.92512 10.4747L8.82016 10.4587L8.71202 10.4529L8.60371 10.4587L8.49874 10.4747L8.29993 10.5359L8.12 10.6323L7.96371 10.7602L7.89508 10.8349L7.83422 10.916L7.73667 11.0938L7.67493 11.2906L7.65358 11.5014L7.67493 11.7128L7.73667 11.9097L7.83422 12.088L7.89508 12.1688L7.96371 12.2426L8.0385 12.3104L8.12 12.3711L8.29993 12.4676L8.49874 12.5287L8.71202 12.55L8.92512 12.5287L9.12393 12.4676L9.30333 12.3711L9.38483 12.3104L9.46051 12.2426L9.58946 12.088L9.68701 11.9097L9.74875 11.7128L9.76481 11.6087L9.77045 11.5014Z" fill="#000000" fill-rule="evenodd" opacity="1" stroke="none"/>
<path d="M12.2477 7.99943L11.4992 7.25824L7.96371 10.7602L8.71202 11.5014L9.46051 12.2426L12.996 8.74063L12.2477 7.99943Z" fill="#000000" fill-rule="evenodd" opacity="1" stroke="none"/>
<path d="M13.3062 7.99943L13.3003 7.89249L13.2843 7.7883L13.2225 7.59176L13.125 7.41369L12.996 7.25824L12.8389 7.13061L12.6594 7.03387L12.4606 6.97267L12.3557 6.95669L12.2477 6.9509L12.1394 6.95669L12.0343 6.97267L11.8356 7.03387L11.6555 7.13061L11.4992 7.25824L11.4306 7.33322L11.3697 7.41369L11.2722 7.59176L11.2105 7.7883L11.1893 7.99943L11.2105 8.21057L11.2722 8.40765L11.3697 8.58572L11.4306 8.66676L11.4992 8.74063L11.574 8.8087L11.6555 8.86907L11.8356 8.96555L12.0343 9.02674L12.2477 9.04768L12.4606 9.02674L12.6594 8.96555L12.8389 8.86907L12.9205 8.8087L12.996 8.74063L13.125 8.58572L13.2225 8.40765L13.2843 8.21057L13.3003 8.10693L13.3062 7.99943" fill="#000000" fill-rule="evenodd" opacity="1" stroke="none"/>
</g>
</svg>
